<svg xmlns="http://www.w3.org/2000/svg" width="24.632" height="24.635" viewBox="0 0 24.632 24.635">
  <path id="link" d="M922.484,2664.521a6.208,6.208,0,0,1,0-8.747l5.114-5.117a2.887,2.887,0,0,1,.239-.222,6.191,6.191,0,0,1,6.425-1.141,6.017,6.017,0,0,1,2.08,1.364L933.7,2653.3a2.445,2.445,0,0,0-3.46,0l-5.113,5.115a2.448,2.448,0,0,0,3.46,3.463l2.352-2.354a6.151,6.151,0,0,0,4.909.325l-4.619,4.672a6.2,6.2,0,0,1-8.743,0Zm9.239-5.8a6.04,6.04,0,0,1-2.08-1.365l2.642-2.644a2.445,2.445,0,0,0,3.46,0l2.028-2.029,3.085-3.087a2.447,2.447,0,1,0-3.46-3.462l-2.454,2.456a7.07,7.07,0,0,0-4.909-.375l4.72-4.724a6.184,6.184,0,0,1,8.744,8.749l-1.926,1.928-3.187,3.189a4.285,4.285,0,0,1-.511.46,6.24,6.24,0,0,1-6.152.9Z" transform="translate(-920.682 -2641.69)" fill="#fff"/>
</svg>
