<svg xmlns="http://www.w3.org/2000/svg" width="25.16" height="24.459" viewBox="0 0 25.16 24.459">
  <path id="lupa" d="M997.13,2665.172l-4.335-4.271a10.971,10.971,0,1,1,4.346-8.7,10.833,10.833,0,0,1-2.068,6.361l4.384,4.318a1.6,1.6,0,0,1,0,2.291,1.666,1.666,0,0,1-2.326,0Zm-19.721-12.97a8.565,8.565,0,0,0,15.315,5.134,8.287,8.287,0,0,0,1.786-5.134,8.551,8.551,0,0,0-17.1,0Zm11.642-2.219a4.147,4.147,0,0,0-3.748-2.309,1.3,1.3,0,1,1,0-2.593,6.766,6.766,0,0,1,6.113,3.766,1.289,1.289,0,0,1-.607,1.734,1.348,1.348,0,0,1-.575.131A1.316,1.316,0,0,1,989.051,2649.983Z" transform="translate(-974.777 -2641.186)" fill="#fff"/>
</svg>
